<?xml version="1.0" standalone="no"?>
<!DOCTYPE svg PUBLIC "-//W3C//DTD SVG 20010904//EN"
 "http://www.w3.org/TR/2001/REC-SVG-20010904/DTD/svg10.dtd">
<svg version="1.0" xmlns="http://www.w3.org/2000/svg"
 width="820.000000pt" height="1023.000000pt" viewBox="0 0 820.000000 1023.000000"
 preserveAspectRatio="xMidYMid meet">

<g transform="translate(0.000000,1023.000000) scale(0.100000,-0.100000)"
fill="#000000" stroke="none">
<path d="M1798 10220 c-502 -58 -860 -357 -1058 -885 -70 -186 -119 -396 -151
-654 -10 -85 -19 -161 -19 -168 0 -10 30 -13 133 -13 l134 0 17 126 c68 486
231 796 465 885 120 45 298 34 420 -27 205 -102 295 -318 331 -794 6 -87 10
-1075 10 -2792 l0 -2658 615 0 615 0 0 2549 0 2550 103 113 c281 308 581 540
881 684 220 105 401 155 625 175 395 35 735 -75 909 -293 149 -188 234 -451
273 -848 8 -82 12 -985 14 -3155 3 -2958 6 -3259 35 -3690 36 -522 93 -908
176 -1198 19 -65 34 -120 34 -123 0 -2 283 -4 629 -4 l629 0 -30 87 c-76 222
-156 613 -192 938 -51 454 -49 295 -57 3790 -4 1793 -10 3280 -13 3305 -4 25
-16 128 -27 230 -94 863 -412 1449 -929 1710 -219 110 -494 170 -779 170 -709
-1 -1444 -448 -2171 -1320 -52 -63 -100 -116 -105 -118 -6 -1 -13 43 -17 106
-25 390 -172 736 -414 978 -175 174 -368 277 -619 329 -94 20 -353 28 -467 15z"/>
</g>
</svg>
